<?xml version="1.0" encoding="UTF-8" standalone="no"?>
<!DOCTYPE svg PUBLIC "-//W3C//DTD SVG 1.1//EN" "http://www.w3.org/Graphics/SVG/1.1/DTD/svg11.dtd">
<svg xmlns="http://www.w3.org/2000/svg" version="1.1" viewBox="0.00 0.00 217.00 160.00">
<path fill="#ffffff" d="
  M 128.34 86.39
  L 151.60 92.90
  A 0.93 0.83 -17.4 0 1 151.89 93.03
  Q 153.40 94.09 154.79 93.73
  A 2.14 2.08 -42.2 0 1 155.93 93.77
  Q 159.21 94.86 171.31 96.86
  Q 189.24 99.83 206.97 96.69
  A 0.15 0.15 0.0 0 1 207.06 96.98
  C 182.08 107.12 156.22 106.99 130.51 99.48
  Q 110.63 93.68 94.42 89.12
  Q 64.67 80.74 34.50 85.12
  A 0.10 0.10 0.0 0 1 34.46 84.93
  Q 46.34 80.78 57.66 78.95
  A 1.51 1.49 -79.5 0 0 58.74 78.20
  Q 64.89 67.45 72.51 56.76
  Q 96.67 22.90 99.47 18.72
  Q 103.69 12.43 105.37 9.55
  A 0.36 0.36 0.0 0 1 105.98 9.54
  Q 109.42 15.02 114.47 22.27
  Q 141.68 61.37 150.12 74.38
  Q 154.21 80.67 156.48 85.09
  A 0.39 0.39 0.0 0 1 156.17 85.66
  Q 142.85 86.94 128.40 86.06
  A 0.17 0.17 0.0 0 0 128.34 86.39
  Z"
/>
<path fill="rgba(255,255,255,0.7)" d="
  M 12.79 98.83
  A 0.18 0.18 0.0 0 1 12.70 98.49
  Q 39.59 89.14 67.63 91.90
  Q 79.80 93.10 95.06 96.93
  C 103.96 99.17 124.14 105.77 142.22 109.54
  Q 163.50 113.98 184.76 110.66
  A 0.21 0.21 0.0 0 1 184.87 111.06
  C 174.65 114.91 165.76 116.60 155.78 118.22
  A 1.30 1.29 -82.1 0 0 154.81 118.96
  C 137.68 156.67 84.19 160.12 61.44 126.29
  Q 56.06 118.30 54.26 108.50
  A 0.50 0.50 0.0 0 1 54.73 107.91
  C 65.83 107.16 76.37 106.24 87.47 107.62
  A 0.14 0.14 0.0 0 0 87.53 107.35
  Q 70.55 101.69 53.76 98.84
  Q 43.56 97.12 33.30 97.24
  Q 22.53 97.36 12.79 98.83
  Z"
/>
</svg>
